HIERARCHY
ROOT Hips
{
	OFFSET 0.000000 89.005402 0.000000
	CHANNELS 6 Xposition Yposition Zposition Xrotation Yrotation Zrotation
	JOINT Spine
	{
		OFFSET 0.116900 10.681000 0.373400
		CHANNELS 3 Xrotation Yrotation Zrotation
		JOINT Spine1
		{
			OFFSET 0.000000 13.840401 0.053500
			CHANNELS 3 Xrotation Yrotation Zrotation
			JOINT Spine2
			{
				OFFSET 0.000000 14.712700 -0.366200
				CHANNELS 3 Xrotation Yrotation Zrotation
				JOINT Neck
				{
					OFFSET 0.000000 35.415497 -3.314200
					CHANNELS 3 Xrotation Yrotation Zrotation
					JOINT Head
					{
						OFFSET 0.000000 16.899200 1.218300
						CHANNELS 3 Xrotation Yrotation Zrotation
						JOINT HeadTop_End
						{
							OFFSET 0.000000 22.206207 2.192500
							CHANNELS 3 Xrotation Yrotation Zrotation
							End Site
							{
								OFFSET 0.000000 22.314178 0.000000
							}
						}
					}
				}
				JOINT LeftShoulder
				{
					OFFSET 12.896400 26.716293 -4.548400
					CHANNELS 3 Xrotation Yrotation Zrotation
					JOINT LeftArm
					{
						OFFSET 19.027000 -4.857010 -1.718400
						CHANNELS 3 Xrotation Yrotation Zrotation
						JOINT LeftForeArm
						{
							OFFSET 24.179897 0.000000 0.000000
							CHANNELS 3 Xrotation Yrotation Zrotation
							JOINT LeftHand
							{
								OFFSET 27.156403 0.000000 0.000000
								CHANNELS 3 Xrotation Yrotation Zrotation
								JOINT LeftHandIndex1
								{
									OFFSET 16.441200 0.000000 0.000000
									CHANNELS 3 Xrotation Yrotation Zrotation
									JOINT LeftHandIndex2
									{
										OFFSET 4.821899 0.000000 0.000000
										CHANNELS 3 Xrotation Yrotation Zrotation
										JOINT LeftHandIndex3
										{
											OFFSET 6.386497 0.000000 0.000000
											CHANNELS 3 Xrotation Yrotation Zrotation
											JOINT LeftHandIndex4
											{
												OFFSET 5.188988 0.000000 0.000000
												CHANNELS 3 Xrotation Yrotation Zrotation
												End Site
												{
													OFFSET -0.178703 5.185913 0.000177
												}
											}
										}
									}
								}
								JOINT LeftHandThumb1
								{
									OFFSET 6.534897 -5.032593 5.900300
									CHANNELS 3 Xrotation Yrotation Zrotation
									JOINT LeftHandThumb2
									{
										OFFSET 3.818176 -2.204422 2.204423
										CHANNELS 3 Xrotation Yrotation Zrotation
										JOINT LeftHandThumb3
										{
											OFFSET 3.252098 -1.877594 1.877601
											CHANNELS 3 Xrotation Yrotation Zrotation
											JOINT LeftHandThumb4
											{
												OFFSET 5.251778 -3.032120 3.032117
												CHANNELS 3 Xrotation Yrotation Zrotation
												End Site
												{
													OFFSET 0.000023 6.780014 0.000000
												}
											}
										}
									}
								}
							}
						}
					}
				}
				JOINT RightShoulder
				{
					OFFSET -12.896300 26.716293 -4.548400
					CHANNELS 3 Xrotation Yrotation Zrotation
					JOINT RightArm
					{
						OFFSET -19.027000 -4.857010 -1.718400
						CHANNELS 3 Xrotation Yrotation Zrotation
						JOINT RightForeArm
						{
							OFFSET -24.179897 0.000000 0.000000
							CHANNELS 3 Xrotation Yrotation Zrotation
							JOINT RightHand
							{
								OFFSET -27.156403 0.000000 0.000000
								CHANNELS 3 Xrotation Yrotation Zrotation
								JOINT RightHandThumb1
								{
									OFFSET -6.591202 -4.852203 5.988100
									CHANNELS 3 Xrotation Yrotation Zrotation
									JOINT RightHandThumb2
									{
										OFFSET -3.818176 -2.204422 2.204423
										CHANNELS 3 Xrotation Yrotation Zrotation
										JOINT RightHandThumb3
										{
											OFFSET -3.252098 -1.877594 1.877601
											CHANNELS 3 Xrotation Yrotation Zrotation
											JOINT RightHandThumb4
											{
												OFFSET -5.251778 -3.032120 3.032117
												CHANNELS 3 Xrotation Yrotation Zrotation
												End Site
												{
													OFFSET -0.000023 6.780014 0.000000
												}
											}
										}
									}
								}
								JOINT RightHandIndex1
								{
									OFFSET -16.029404 0.000000 0.000000
									CHANNELS 3 Xrotation Yrotation Zrotation
									JOINT RightHandIndex2
									{
										OFFSET -5.213303 0.000000 0.000000
										CHANNELS 3 Xrotation Yrotation Zrotation
										JOINT RightHandIndex3
										{
											OFFSET -6.386528 0.000000 0.000000
											CHANNELS 3 Xrotation Yrotation Zrotation
											JOINT RightHandIndex4
											{
												OFFSET -5.189026 0.000000 0.000000
												CHANNELS 3 Xrotation Yrotation Zrotation
												End Site
												{
													OFFSET 0.236702 5.183624 0.001972
												}
											}
										}
									}
								}
							}
						}
					}
				}
			}
		}
	}
	JOINT LeftUpLeg
	{
		OFFSET 14.073000 -7.904099 -1.463000
		CHANNELS 3 Xrotation Yrotation Zrotation
		JOINT LeftLeg
		{
			OFFSET -0.109806 -34.073280 4.093200
			CHANNELS 3 Xrotation Yrotation Zrotation
			JOINT LeftFoot
			{
				OFFSET 0.109806 -29.899420 -6.319000
				CHANNELS 3 Xrotation Yrotation Zrotation
				JOINT LeftToeBase
				{
					OFFSET 1.551100 -14.988700 20.535801
					CHANNELS 3 Xrotation Yrotation Zrotation
					JOINT LeftToe_End
					{
						OFFSET 0.221200 0.570800 13.248301
						CHANNELS 3 Xrotation Yrotation Zrotation
						End Site
						{
							OFFSET 0.000000 13.262435 0.000000
						}
					}
				}
			}
		}
	}
	JOINT RightUpLeg
	{
		OFFSET -13.839300 -7.904099 -1.463000
		CHANNELS 3 Xrotation Yrotation Zrotation
		JOINT RightLeg
		{
			OFFSET 0.109694 -34.073219 4.093300
			CHANNELS 3 Xrotation Yrotation Zrotation
			JOINT RightFoot
			{
				OFFSET -0.109694 -29.899384 -6.319200
				CHANNELS 3 Xrotation Yrotation Zrotation
				JOINT RightToeBase
				{
					OFFSET -1.551100 -14.988700 20.535801
					CHANNELS 3 Xrotation Yrotation Zrotation
					JOINT RightToe_End
					{
						OFFSET -0.221200 0.570900 13.248299
						CHANNELS 3 Xrotation Yrotation Zrotation
						End Site
						{
							OFFSET 0.000000 13.262440 0.000000
						}
					}
				}
			}
		}
	}
}
MOTION
Frames: 8
Frame Time: 0.033333
-0.008199 74.707397 2.877342 18.364101 -3.966515 -1.043917 3.526513 -0.588263 1.592315 2.857223 -0.554533 0.861724 2.859401 -0.540885 0.863014 -12.196283 0.860097 0.865027 -8.374982 5.865155 -3.053731 -0.000000 0.000000 -0.000000 2.661691 0.662915 -9.763903 -0.807590 -29.168449 -52.622759 -0.000163 -82.538137 -0.000195 -13.336919 -39.681879 31.525971 8.217931 -16.471809 -19.121374 0.381211 2.080572 -20.763321 0.131202 1.234286 -12.136941 0.000002 0.000000 0.000003 -1.840849 -9.507489 -9.240978 3.451779 2.496487 -2.901802 -4.638793 5.770470 5.875198 -0.000001 -0.000000 -0.000000 11.058065 15.939551 2.577355 -12.110182 31.948008 54.988869 0.000294 84.549313 -0.000314 0.663437 21.603648 -37.482255 -13.238808 13.184485 18.517129 7.301258 -18.369141 0.872451 -5.504757 -5.510964 -14.718515 -0.000000 0.000000 0.000000 -1.014758 7.769724 21.962789 0.344562 -1.759743 22.156814 0.039813 -0.608324 7.489058 0.000001 -0.000000 0.000000 -42.972262 -3.435053 21.619301 51.176364 -8.984269 1.517269 -26.184476 4.852839 -16.797373 -2.968886 0.000002 -0.000004 0.000000 -0.000000 -0.000000 -43.877156 1.200388 -14.977382 48.726723 2.383744 -5.167389 -21.036354 -4.969906 20.199263 -3.794305 -0.000000 -0.000002 -0.000000 -0.000000 -0.000000 
0.403573 74.460518 3.881308 18.546723 -3.799234 -0.923687 3.762113 -0.544376 1.794463 2.984249 -0.531901 0.886487 2.985319 -0.509513 0.900964 -12.066700 0.811747 0.902104 -8.316852 5.692185 -3.218656 -0.000000 -0.000000 -0.000000 2.400690 0.331969 -9.732658 -4.570373 -29.511427 -52.695582 0.000011 -80.048861 0.000015 -15.740058 -38.360463 30.795684 8.119756 -16.321389 -19.189616 0.384940 2.090407 -20.866001 0.135783 1.255314 -12.347048 0.000002 -0.000001 0.000000 -1.692622 -9.343998 -9.217041 3.469163 2.558548 -2.859263 -4.650905 5.827012 5.980938 0.000000 -0.000001 -0.000000 10.689665 16.209639 2.441237 -16.409197 31.972566 55.296549 0.000123 82.526498 -0.000116 -0.878871 21.113059 -36.252899 -13.117506 13.165056 18.370320 7.297516 -18.375137 0.837076 -5.492257 -5.601981 -14.738244 0.000000 -0.000000 -0.000001 -0.989911 7.728640 21.875300 0.343539 -1.757197 22.122969 0.041260 -0.619302 7.625045 0.000002 -0.000001 -0.000002 -42.614892 -3.208106 21.124993 52.168848 -9.082380 1.513392 -27.764386 4.959849 -16.187898 -2.996201 0.000003 -0.000003 0.000000 0.000000 0.000000 -44.247250 1.713567 -15.717322 50.807527 2.742520 -5.152944 -21.362559 -5.232029 20.387579 -6.722720 0.000000 0.000004 -0.000000 0.000000 0.000000 
0.715738 74.036148 5.015930 18.733322 -4.241933 -0.870283 4.046295 -0.437920 2.001614 3.160374 -0.426332 0.996586 3.159393 -0.397574 1.024322 -11.939670 0.830050 0.970671 -8.472660 5.915265 -3.488390 -0.000001 0.000000 -0.000000 2.140569 0.000018 -9.699969 -8.711251 -29.808783 -53.246420 0.000015 -77.477677 0.000016 -18.164647 -37.429003 30.666361 8.022306 -16.170084 -19.254554 0.388660 2.100122 -20.967704 0.140411 1.276174 -12.555652 -0.000001 -0.000000 -0.000001 -1.544547 -9.179145 -9.191253 3.488014 2.620316 -2.816986 -4.663022 5.883498 6.086661 0.000000 -0.000001 -0.000001 10.343391 16.509409 2.187336 -21.317333 32.722251 56.192714 0.000138 79.346649 -0.000135 -2.827342 20.479441 -35.001332 -12.996022 13.145323 18.223725 7.294323 -18.381036 0.801821 -5.479787 -5.692992 -14.757935 -0.000000 -0.000000 -0.000000 -0.965201 7.687513 21.787841 0.342510 -1.754634 22.089112 0.042771 -0.630278 7.761033 -0.000003 -0.000001 0.000002 -41.918408 -3.119149 21.074820 53.610011 -8.775565 1.481601 -29.944475 5.237629 -15.887696 -2.941630 -0.000001 -0.000001 -0.000000 -0.000000 0.000000 -48.253938 3.020722 -15.775323 58.059593 3.206583 -5.477701 -19.395173 -4.744689 18.833582 -13.833610 0.000004 0.000001 -0.000000 -0.000002 -0.000001 
1.062426 73.647659 6.109009 19.023359 -5.390839 -0.990235 4.369023 -0.238874 2.341112 3.374436 -0.265531 1.160026 3.370474 -0.232976 1.201262 -11.832142 0.901469 1.098821 -8.945226 6.521514 -3.838331 -0.000000 0.000000 -0.000000 1.867594 -0.433496 -9.550407 -12.992580 -29.927092 -53.909215 0.000017 -75.202562 0.000030 -20.606520 -34.991776 30.525741 7.924933 -16.019087 -19.322632 0.392479 2.110067 -21.071839 0.145122 1.297197 -12.765919 -0.000000 0.000001 -0.000001 -1.395459 -9.013808 -9.167850 3.508099 2.681903 -2.774926 -4.675106 5.939901 6.192488 -0.000000 -0.000000 -0.000000 10.025026 16.958315 1.741759 -26.540978 34.342140 57.795592 -0.000090 75.012307 0.000088 -6.154140 19.193655 -33.724080 -12.874361 13.125228 18.077328 7.291397 -18.386885 0.766602 -5.467306 -5.783987 -14.777623 -0.000000 -0.000000 -0.000000 -0.940625 7.646312 21.700384 0.341473 -1.752097 22.055258 0.044266 -0.641246 7.897031 0.000001 -0.000000 -0.000000 -40.975917 -3.100587 21.394249 55.053326 -7.870623 1.442899 -32.283309 5.613061 -15.885902 -2.895996 0.000002 0.000000 0.000000 -0.000000 -0.000000 -50.439137 3.500142 -15.505190 60.877742 4.153920 -5.729467 -18.066953 -4.407431 18.183195 -20.080591 0.000002 -0.000002 0.000001 0.000000 0.000000 
1.430223 73.293686 7.157892 19.486038 -6.986463 -1.238460 4.698993 -0.027342 2.803187 3.594765 -0.128454 1.345566 3.587632 -0.093592 1.400433 -11.679956 0.985361 1.371805 -9.698432 7.482115 -4.280312 0.000000 -0.000000 0.000000 1.577618 -1.039440 -9.218314 -16.902095 -29.883109 -54.072094 -0.000051 -73.803964 -0.000063 -22.860833 -28.933569 30.507836 7.827025 -15.869827 -19.398422 0.396452 2.120364 -21.179559 0.150023 1.318631 -12.980636 -0.000001 0.000000 0.000000 -1.246392 -8.851156 -9.152396 3.528670 2.743413 -2.732996 -4.687177 5.996260 6.298277 -0.000000 0.000000 -0.000000 9.693503 17.617034 1.274983 -31.533074 36.644498 59.755010 -0.000035 69.685135 0.000023 -11.917573 17.076163 -32.271309 -12.752543 13.104798 17.931159 7.288414 -18.392731 0.731380 -5.454900 -5.875011 -14.797304 -0.000000 0.000000 0.000000 -0.916174 7.605079 21.612928 0.340429 -1.749546 22.021443 0.045805 -0.652215 8.033012 0.000000 0.000000 0.000005 -40.045877 -3.122641 21.891134 56.473930 -6.478573 1.422970 -34.533645 5.995490 -16.009294 -3.223996 -0.000001 0.000004 -0.000000 -0.000000 0.000000 -51.343229 3.634234 -15.248363 61.488477 5.573180 -5.402057 -17.872353 -4.237865 17.615288 -19.766858 -0.000002 0.000002 0.000000 0.000001 0.000001 
1.909123 72.879715 8.649345 20.114072 -8.642092 -1.400137 4.999965 0.040977 3.238941 3.787146 -0.083697 1.548739 3.776926 -0.049001 1.617323 -11.410735 1.079163 1.816605 -10.502172 8.831970 -4.885554 0.000000 0.000000 0.000000 1.283277 -1.778076 -8.788275 -19.853383 -29.805948 -53.263437 0.000114 -73.539096 0.000116 -24.888053 -19.199003 31.214036 7.729368 -15.720363 -19.468618 0.400276 2.130161 -21.282444 0.154963 1.339877 -13.193620 -0.000001 -0.000000 -0.000001 -1.101533 -8.691734 -9.138564 3.549107 2.804910 -2.691076 -4.699278 6.052544 6.404137 0.000000 -0.000000 -0.000001 9.301648 18.399133 1.016388 -35.749114 39.187521 61.573978 -0.000029 63.569513 0.000029 -20.373095 14.569695 -30.473760 -12.630557 13.084051 17.785196 7.285289 -18.398629 0.696110 -5.442505 -5.966036 -14.816958 -0.000000 0.000002 0.000000 -0.891873 7.563787 21.525491 0.339417 -1.746985 21.987600 0.047363 -0.663179 8.169013 -0.000000 -0.000001 0.000004 -39.196523 -2.973104 22.110579 58.395686 -4.848997 1.439730 -36.784182 6.192492 -15.800734 -4.398573 -0.000001 0.000003 -0.000000 -0.000000 -0.000000 -58.174996 4.194559 -12.338182 63.572580 2.587792 -3.901022 -11.933451 -3.187700 17.754004 -11.796344 -0.000009 -0.000001 -0.000000 0.000001 0.000000 
2.415570 72.638588 10.541576 20.855981 -10.278205 -1.359570 5.246876 -0.016985 3.601414 3.926650 -0.126517 1.775679 3.912369 -0.098697 1.858986 -11.072043 1.231830 2.272477 -11.109749 10.487226 -5.630028 -0.000001 -0.000000 0.000000 0.994296 -2.546045 -8.346032 -21.401298 -29.752280 -51.385432 -0.000062 -73.781431 -0.000063 -27.663248 -8.859282 32.285707 7.634619 -15.565064 -19.509559 0.403575 2.138602 -21.371059 0.159641 1.359648 -13.392015 -0.000001 -0.000000 -0.000004 -0.960629 -8.526325 -9.104572 3.569405 2.866398 -2.649171 -4.711365 6.108775 6.510008 -0.000000 -0.000001 0.000000 8.893508 19.161064 0.899737 -38.844105 41.322675 63.182399 -0.000011 56.965745 -0.000001 -30.600170 12.117084 -28.013355 -12.508385 13.062953 17.639452 7.282022 -18.404532 0.660848 -5.430144 -6.057072 -14.836581 -0.000002 -0.000001 -0.000000 -0.867709 7.522452 21.438099 0.338373 -1.744418 21.953760 0.048935 -0.674162 8.305004 0.000000 0.000000 -0.000001 -38.083451 -2.607279 22.165801 60.096089 -3.475506 1.402530 -38.659342 6.596299 -16.036219 -6.588302 -0.000003 0.000007 0.000000 0.000000 0.000000 -65.428308 4.657950 -9.051414 65.074211 -1.744336 -2.551918 -8.020978 -2.529086 18.248165 -3.490699 -0.002507 0.065970 0.000000 -0.000000 -0.000000 
2.709684 72.583771 12.827637 21.646287 -11.865120 -0.938359 5.437333 -0.198714 3.755508 4.001942 -0.212807 2.017284 3.981631 -0.198848 2.117547 -10.768903 1.454343 2.561213 -11.404189 12.171368 -6.467491 0.000000 0.000000 0.000000 0.709124 -3.275586 -7.717786 -21.164982 -29.807837 -48.458338 -0.000075 -73.219922 -0.000075 -32.414647 -2.014763 31.934778 7.542096 -15.405662 -19.545022 0.407063 2.147482 -21.464194 0.164258 1.378917 -13.585389 -0.000000 -0.000004 0.000001 -0.810992 -8.346583 -9.054748 3.589710 2.927995 -2.607308 -4.723445 6.164944 6.615920 -0.000000 -0.000000 0.000000 8.575472 19.830589 0.669097 -40.628786 42.233672 64.757782 -0.000005 50.403381 0.000019 -41.018107 9.641670 -24.619634 -12.386050 13.041556 17.493918 7.278717 -18.410421 0.625538 -5.417816 -6.148090 -14.856191 0.000000 -0.000002 -0.000001 -0.843690 7.481060 21.350681 0.337341 -1.741877 21.919925 0.050558 -0.685107 8.440982 0.000003 0.000001 -0.000002 -36.350400 -1.791539 21.880996 60.911463 -2.060863 1.383559 -39.932493 7.030627 -16.470892 -9.508954 0.000001 -0.000000 -0.000000 -0.000000 0.000000 -70.433170 4.918995 -6.413426 63.707278 -3.605893 -1.860657 -6.777380 -2.282638 17.813168 6.173731 0.000004 -0.000006 -0.000001 -0.000000 0.000000 
